<!-- SVGs FOR COUNTRY FLAGS ICONS -->
<!-- SVG from https://iconify.design/. General license: MIT. Icon license specified in icon. -->
<svg id="astro" xmlns="http://www.w3.org/2000/svg" width="2em" height="2em" viewBox="0 0 24 24" >
  <!-- Icon name: simple-icons:astro. License: CC0 1.0. -->
  <!-- Modified for sizing with Inkscape. -->
  <path
     fill="currentColor"
     d="M 9.0864,18.5296 C 8.1376,17.6736 7.8608,15.8768 8.256,14.5744 c 0.6848,0.8208 1.6344,1.0816 2.6176,1.228 1.5176,0.2264 3.008,0.1416 4.4176,-0.5424 0.1616,-0.0784 0.3104,-0.1832 0.4864,-0.288 0.1328,0.3784 0.1672,0.76 0.1208,1.1496 -0.112,0.948 -0.5904,1.68 -1.3504,2.2352 -0.304,0.2216 -0.6256,0.42 -0.94,0.6296 -0.964,0.6432 -1.2248,1.3976 -0.8624,2.4952 L 12.7808,21.6 A 2.528,2.528 0 0 1 11.6552,20.6496 2.64,2.64 0 0 1 11.22,19.1976 c -0.0032,-0.256 -0.0032,-0.5136 -0.0384,-0.7664 -0.0848,-0.6152 -0.3776,-0.8904 -0.9288,-0.9064 -0.5656,-0.016 -1.0136,0.3288 -1.132,0.872 -0.0096,0.0424 -0.0224,0.0832 -0.036,0.132 z m -4.7688,-3.556 c 0,0 2.592,-1.26 5.192,-1.26 l 1.9608,-6.052 C 11.544,7.3688 11.7584,7.1704 12,7.1704 c 0.2416,0 0.456,0.1984 0.5296,0.4912 l 1.96,6.052 c 3.08,0 5.1928,1.26 5.1928,1.26 L 15.2704,2.9816 C 15.144,2.628 14.9304,2.4 14.6424,2.4 H 9.3576 c -0.288,0 -0.492,0.228 -0.6272,0.5816 z"
     id="path1"
     style="stroke-width:1" />
</svg>