<!-- SVGs FOR COUNTRY FLAGS ICONS -->
<!-- SVG from https://iconify.design/. General license: MIT. Icon license specified in icon. -->
<svg id="coding" width="2em" height="2em" viewBox="0 0 24 24" xmlns="http://www.w3.org/2000/svg">
  <!-- Icon name: mdi:code-braces-box. License: Apache 2.0. -->
  <path fill="currentColor" d="M19 3H5c-1.1 0-2 .9-2 2v14c0 1.1.9 2 2 2h14c1.1 0 2-.9 2-2V5c0-1.1-.9-2-2-2m-8 5H9v2c0 1.1-.9 2-2 2c1.1 0 2 .9 2 2v2h2v2H9c-1.1 0-2-.9-2-2v-1c0-1.1-.9-2-2-2v-2c1.1 0 2-.9 2-2V8c0-1.1.9-2 2-2h2zm8 5c-1.1 0-2 .9-2 2v1c0 1.1-.9 2-2 2h-2v-2h2v-2c0-1.1.9-2 2-2c-1.1 0-2-.9-2-2V8h-2V6h2c1.1 0 2 .9 2 2v1c0 1.1.9 2 2 2z"/>
</svg>