<!-- SVGs FOR COUNTRY FLAGS ICONS -->
<!-- SVG from https://iconify.design/. General license: MIT. Icon license specified in icon. -->
<svg id="tailwind" width="2em" height="2em" viewBox="0 0 128 128" xmlns="http://www.w3.org/2000/svg">
  <!-- Original icon name: devicon:tailwindcss. License: MIT. -->
  <!-- Path modified with Inkscape. -->
  <path
     fill="#38bdf8"
     d="m 64.004,32.89762 c -13.82427,0 -22.4613,6.9093 -25.92,20.73357 5.18238,-6.91011 11.23227,-9.5013 18.14238,-7.77357 3.94551,0.98334 6.76512,3.84426 9.88767,7.0146 C 71.19599,58.02949 77.07821,64 89.924,64 c 13.82346,0 22.4613,-6.91011 25.92,-20.73762 Q 108.068,53.63281 97.70081,51.04 C 93.75611,50.05585 90.93974,47.19574 87.81314,44.0254 82.73444,38.86813 76.85384,32.89762 64.004,32.89762 M 38.084,64 C 24.26054,64 15.6227,70.91011 12.164,84.73762 Q 19.93919,74.36719 30.30638,76.96 c 3.94551,0.98415 6.76512,3.84426 9.88767,7.0146 5.08194,5.15727 10.96416,11.12778 23.80995,11.12778 13.82346,0 22.4613,-6.9093 25.92,-20.73357 Q 82.148,84.73438 71.78081,82.14238 C 67.83611,81.15904 65.01974,78.29812 61.89314,75.12778 56.81444,69.97051 50.93384,64 38.084,64 m 0,0"
     id="path1"
     style="stroke-width:0.999999" />
</svg>